:SAMPLES-PER-SECOND 30
:FULLY-SPECIFIED
:DEGREES
1776
root  51.1428 35.7289 1.3772 102.654 83.4277 102.677
RightUpLeg  -17.7873 -12.9156 -13.4482
RightLeg  49.0224 1.46111 1.46004
RightFoot  -26.7339 0.000460009 1.34675
RightToes  -1.81608e-008 0 -3.6325e-017
Spine  19.6139 -0.760217 -0.727804
Spine1  0.14983 -0.371115 -3.29256
HEad  -27.6397 -2.92735 -14.6321
LeftShoulder1  -0.0387259 3.62553 -25.6024
LeftArm  -13.3338 7.29831 -45.6349
LeftForeArm  16.5731 -3.55031 -3.21832
LeftHand  -0.01163 8.99035 1.12878
RightShoulder  -0.221276 -4.30335 20.3304
RightArm  7.82076 -1.56568 55.2166
RightForeArm  9.72838 47.8189 11.6836
RightHand  -0.580639 3.64336 -7.70368
LeftUpLeg  -15.5215 14.6032 16.5413
LeftLeg  3.28609 10.3071 0.692101
LeftFoot  3.93037 1.55556 -11.6414
LeftToes  1.81866e-011 -6.13092e-011 2.52013e-011
1777
root  51.7881 35.7718 0.863718 97.3734 84.5517 97.3846
RightUpLeg  -16.1751 -12.0195 -13.3979
RightLeg  47.7415 1.5959 1.55348
RightFoot  -26.8809 0.129494 2.28475
RightToes  -1.81608e-008 0 -3.6325e-017
Spine  18.5602 -0.633529 -1.71298
Spine1  -0.056749 -0.50723 -2.71871
HEad  -27.7097 -2.29643 -15.3934
LeftShoulder1  -0.0953482 3.79929 -26.0674
LeftArm  -13.1044 6.54442 -44.9131
LeftForeArm  16.9217 -3.57934 -3.32405
LeftHand  -0.0262121 8.91306 0.668641
RightShoulder  -0.248329 -4.3919 20.6737
RightArm  7.86374 -1.73282 55.3953
RightForeArm  12.5207 51.9474 13.4217
RightHand  -0.51849 3.01871 -7.38469
LeftUpLeg  -14.3001 13.8882 16.9688
LeftLeg  1.67994 8.22315 1.41288
LeftFoot  11.0001 2.63931 -13.6356
LeftToes  1.81866e-011 -6.13092e-011 2.52013e-011
1778
root  52.5247 35.8565 0.325036 99.515 85.7856 99.4498
RightUpLeg  -13.9594 -11.1696 -13.067
RightLeg  45.7409 1.34213 1.16119
RightFoot  -26.9355 0.301089 3.53503
RightToes  -1.81608e-008 0 -3.6325e-017
Spine  17.2577 -0.509471 -2.1815
Spine1  -0.329945 -0.533086 -2.18005
HEad  -28.0019 -3.39375 -15.5282
LeftShoulder1  -0.0605059 3.69113 -25.9638
LeftArm  -12.8071 5.76339 -44.6218
LeftForeArm  17.5359 -4.50591 -3.63285
LeftHand  0.00192695 8.75879 1.73871
RightShoulder  -0.313594 -4.6217 20.963
RightArm  7.44737 -2.48822 55.3503
RightForeArm  14.3468 55.5274 15.2929
RightHand  -0.516823 3.0555 -7.32949
LeftUpLeg  -13.2814 14.3439 17.8846
LeftLeg  1.28285 6.61354 1.36298
LeftFoot  14.8902 3.75129 -16.4155
LeftToes  1.81866e-011 -6.13092e-011 2.52013e-011
1779
root  53.2796 36.0141 -0.191242 112.091 86.5351 111.774
RightUpLeg  -11.43 -10.887 -13.0041
RightLeg  43.0675 0.954949 0.661776
RightFoot  -26.6682 0.45457 4.72045
RightToes  -1.81608e-008 0 -3.6325e-017
Spine  15.6137 -0.609234 -3.57069
Spine1  -0.623486 -0.907214 -1.47892
HEad  -27.7796 -4.14914 -15.8565
LeftShoulder1  -0.203907 4.13623 -26.012
LeftArm  -12.6894 4.7137 -43.8832
LeftForeArm  17.8589 -6.20337 -3.87696
LeftHand  0.00137603 7.20407 2.52491
RightShoulder  -0.264652 -4.42927 21.3385
RightArm  6.43258 -3.55392 55.1047
RightForeArm  16.1094 58.4636 17.148
RightHand  -0.463427 2.4626 -7.05401
LeftUpLeg  -12.7526 15.4326 18.6704
LeftLeg  1.68915 5.48666 0.472672
LeftFoot  15.7104 4.45988 -18.8285
LeftToes  1.81866e-011 -6.13092e-011 2.52013e-011
1780
root  54.0255 36.2167 -0.637851 127.518 86.0699 127.055
RightUpLeg  -8.68885 -10.6636 -13.6393
RightLeg  40.3226 0.190641 -0.0996224
RightFoot  -26.1077 0.611255 6.078
RightToes  -1.81608e-008 0 -3.6325e-017
Spine  14.662 -0.334063 -6.07532
Spine1  -1.19962 -0.988595 -0.889635
HEad  -27.813 -6.39236 -15.8018
LeftShoulder1  -0.144042 3.96094 -25.1977
LeftArm  -12.5949 3.88106 -43.9962
LeftForeArm  18.8104 -8.66815 -4.19547
LeftHand  -0.0134369 8.00384 1.28124
RightShoulder  -0.31853 -4.60248 21.9109
RightArm  5.22297 -5.18243 54.1297
RightForeArm  17.9454 61.3975 19.3746
RightHand  -0.449714 2.55552 -6.77875
LeftUpLeg  -12.4377 15.9847 18.4897
LeftLeg  2.65897 4.01248 -0.448829
LeftFoot  13.7784 4.36294 -19.7881
LeftToes  1.81866e-011 -6.13092e-011 2.52013e-011
1781
root  54.7113 36.4386 -1.08081 147.44 84.6283 147.029
RightUpLeg  -5.78803 -10.7799 -14.0763
RightLeg  37.9694 -0.908779 -1.03047
RightFoot  -24.7798 0.811375 8.30636
RightToes  -1.81608e-008 0 -3.6325e-017
Spine  13.7885 -0.277276 -8.42809
Spine1  -0.732955 -1.28926 0.0365047
HEad  -28.4163 -9.59799 -15.5443
LeftShoulder1  -0.0927723 3.80541 -24.547
LeftArm  -11.8814 1.55874 -44.2166
LeftForeArm  18.505 -10.7154 -4.53595
LeftHand  -0.0149436 6.0973 2.40733
RightShoulder  -0.262377 -4.41247 21.6205
RightArm  3.203 -6.90281 53.852
RightForeArm  20.832 64.0041 21.681
RightHand  -0.466535 2.26037 -7.26957
LeftUpLeg  -12.7363 15.4936 17.7047
LeftLeg  3.78458 2.07195 -0.426464
LeftFoot  12.3105 4.02013 -19.4021
LeftToes  1.81866e-011 -6.13092e-011 2.52013e-011
